<?xml version="1.0" standalone="no"?>
<!DOCTYPE svg PUBLIC "-//W3C//DTD SVG 20010904//EN"
 "http://www.w3.org/TR/2001/REC-SVG-20010904/DTD/svg10.dtd">
<svg version="1.0" xmlns="http://www.w3.org/2000/svg"
 width="750.000000pt" height="500.000000pt" viewBox="0 0 750.000000 500.000000"
 preserveAspectRatio="xMidYMid meet">
<g transform="translate(0.000000,500.000000) scale(0.100000,-0.100000)"
fill="#bc2727" stroke="none">
<path d="M0 3785 l0 -1215 975 0 975 0 0 1215 0 1215 -255 0 -255 0 0 -960 0
-960 -110 0 -110 0 0 960 0 960 -250 0 -250 0 0 -960 0 -960 -110 0 -110 0 0
960 0 960 -250 0 -250 0 0 -1215z m479 288 c0 -500 -2 -903 -4 -898 -2 6 -103
406 -225 890 -121 484 -223 888 -226 898 -5 16 10 17 225 17 l231 0 -1 -907z
m720 10 c-1 -494 -3 -891 -6 -883 -2 8 -102 404 -222 880 -120 476 -222 873
-226 883 -7 16 8 17 224 17 l231 0 -1 -897z m730 -20 l-1 -918 -213 850 c-117
468 -220 875 -229 905 -9 30 -16 61 -16 68 0 9 53 12 230 12 l230 0 -1 -917z
m-959 -68 c121 -484 223 -888 226 -897 5 -17 -10 -18 -225 -18 l-231 0 1 908
c0 499 2 903 4 897 3 -5 104 -406 225 -890z m731 -40 c115 -462 212 -848 215
-857 5 -17 -10 -18 -225 -18 l-231 0 1 908 c1 822 2 902 16 857 8 -27 109
-428 224 -890z m-1451 23 c121 -482 220 -882 220 -887 0 -8 -74 -11 -225 -11
l-225 0 1 898 c0 493 2 893 4 887 3 -5 103 -405 225 -887z m1680 -1148 c0
-126 -2 -230 -3 -230 -9 0 -1689 421 -1752 438 l-70 20 913 1 912 1 0 -230z
m-1790 194 c52 -14 460 -117 905 -228 l810 -204 -917 -1 -918 -1 0 230 c0 177
3 230 13 230 6 0 55 -12 107 -26z"/>
<path d="M2170 4750 l0 -250 250 0 250 0 0 250 0 250 -250 0 -250 0 0 -250z
m480 13 l0 -216 -182 178 c-101 98 -201 196 -223 217 l-40 38 223 0 222 0 0
-217z m-235 -23 l220 -220 -223 0 -222 0 0 220 c0 121 1 220 3 220 1 0 101
-99 222 -220z"/>
<path d="M2170 3425 l0 -855 250 0 250 0 0 855 0 855 -250 0 -250 0 0 -855z
m479 38 l0 -798 -56 195 c-31 107 -114 400 -185 650 -71 250 -142 498 -158
550 -16 52 -36 119 -44 148 l-15 52 230 0 229 0 -1 -797z m-205 -161 c108
-381 196 -697 196 -702 0 -6 -88 -10 -225 -10 l-225 0 1 788 0 787 28 -85 c16
-47 117 -397 225 -778z"/>
<path d="M2890 3425 l0 -855 255 0 255 0 0 605 0 605 240 0 240 0 0 250 0 250
-495 0 -495 0 0 -855z m929 379 c2 -2 -201 -4 -452 -4 l-457 0 0 230 0 230
453 -226 c248 -124 454 -228 456 -230z m41 232 l0 -225 -142 68 c-79 38 -280
139 -448 225 l-305 156 448 0 447 0 0 -224z m-480 -828 c0 -314 -2 -569 -4
-567 -3 2 -83 202 -180 444 -96 242 -195 487 -219 545 -24 58 -47 116 -51 128
l-7 22 230 0 231 0 0 -572z m-422 414 c13 -30 102 -253 198 -495 96 -243 183
-463 194 -489 l19 -48 -230 0 -229 0 1 568 c0 430 3 561 12 542 6 -14 22 -49
35 -78z"/>
<path d="M4100 3425 l0 -855 615 0 615 0 0 255 0 255 -360 0 -360 0 0 110 0
110 360 0 360 0 0 490 0 490 -615 0 -615 0 0 -855z m490 268 c0 -311 -2 -564
-4 -562 -2 2 -19 40 -36 84 -17 44 -40 98 -50 120 -13 29 -283 699 -367 913
-4 9 45 12 226 12 l231 0 0 -567z m720 341 c0 -177 -3 -224 -12 -218 -37 22
-314 208 -318 214 -3 4 -75 53 -160 110 -85 56 -159 106 -164 111 -6 5 132 9
322 9 l332 0 0 -226z m-45 -225 c5 -5 -136 -9 -323 -9 l-332 0 0 226 0 225
323 -217 c177 -119 326 -221 332 -225z m-741 -588 c31 -73 56 -135 56 -137 0
-2 -103 -4 -230 -4 l-230 0 0 568 1 567 173 -430 c96 -236 199 -490 230 -564z
m306 449 l0 -110 -110 0 -110 0 0 110 0 110 110 0 110 0 0 -110z m480 -110 c0
-121 -1 -220 -3 -220 -1 0 -101 99 -222 220 l-220 220 223 0 222 0 0 -220z
m-20 -237 c0 -2 -99 -3 -220 -3 l-220 0 0 216 0 216 220 -213 c121 -117 220
-214 220 -216z m-460 115 l0 -103 -102 100 c-56 55 -104 101 -107 103 -2 1 44
2 102 2 l107 0 0 -102z m-120 -23 l95 -95 -98 0 -97 0 0 95 c0 52 1 95 3 95 1
0 45 -43 97 -95z m600 -584 l0 -229 -147 58 c-431 169 -941 374 -963 386 -21
11 59 13 543 14 l567 0 0 -229z m-1096 184 c45 -19 302 -122 571 -229 l490
-195 -577 -1 -578 0 0 230 c0 127 3 230 6 230 4 0 43 -16 88 -35z"/>
<path d="M0 1215 l0 -1215 250 0 250 0 0 480 0 480 360 0 360 0 0 250 0 250
-360 0 -360 0 0 230 0 230 360 0 360 0 0 255 0 255 -610 0 -610 0 0 -1215z
m479 43 l-1 -1153 -94 465 c-51 256 -152 762 -224 1125 -72 363 -135 672 -140
688 l-9 27 235 0 234 0 -1 -1152z m721 927 c0 -124 -3 -225 -6 -225 -4 0 -50
31 -103 68 -53 38 -201 138 -328 222 -128 84 -233 154 -233 156 0 2 151 4 335
4 l335 0 0 -225z m-381 0 c168 -113 317 -214 331 -225 25 -20 24 -20 -312 -20
l-338 0 0 225 c0 124 3 225 6 225 4 0 144 -92 313 -205z m-350 -2162 c1 -10
-50 -13 -224 -13 l-225 0 1 1128 1 1127 224 -1115 c122 -613 223 -1121 223
-1127z m731 1193 l0 -224 -322 215 c-178 119 -327 220 -332 224 -6 5 137 9
322 9 l332 0 0 -224z m-270 -69 c107 -72 206 -138 219 -149 23 -18 16 -18
-313 -18 l-336 0 0 225 0 224 118 -76 c64 -42 205 -135 312 -206z"/>
<path d="M1440 850 l0 -850 255 0 255 0 0 600 0 600 240 0 240 0 0 250 0 250
-495 0 -495 0 0 -850z m939 374 c2 -2 -203 -4 -457 -4 l-462 0 0 229 0 229
458 -225 c251 -124 459 -227 461 -229z m31 236 c0 -121 -3 -220 -7 -220 -5 0
-206 99 -448 219 l-440 219 448 1 447 1 0 -220z m-481 -832 l0 -573 -213 530
c-117 292 -220 547 -229 569 -9 21 -17 40 -17 42 0 2 104 4 230 4 l230 0 -1
-572z m-258 11 c110 -277 211 -532 224 -566 l24 -63 -229 0 -230 0 0 572 c0
314 2 569 5 567 2 -3 95 -232 206 -510z"/>
<path d="M2650 1450 l0 -250 365 0 365 0 0 -110 0 -110 -365 0 -365 0 0 -490
0 -490 618 0 617 0 -3 850 -2 850 -615 0 -615 0 0 -250z m1210 5 c0 -124 -2
-225 -5 -225 -3 0 -173 67 -377 148 -205 82 -452 179 -548 217 -96 37 -182 71
-190 76 -8 5 240 9 553 9 l567 0 0 -225z m-698 25 c266 -105 521 -206 568
-225 l85 -34 -572 -1 -573 0 0 225 c0 124 2 225 5 225 3 0 222 -86 487 -190z
m698 -842 c0 -309 -2 -559 -4 -557 -11 12 -446 1095 -446 1111 0 4 101 8 225
8 l225 0 0 -562z m-296 102 c85 -212 179 -443 208 -515 30 -72 62 -149 71
-172 l17 -43 -230 0 -230 0 0 562 c0 309 2 559 5 557 2 -3 74 -178 159 -389z
m-424 0 c0 -121 -3 -220 -8 -220 -4 0 -106 99 -227 220 l-220 220 228 0 227 0
0 -220z m240 120 c0 -55 -1 -100 -3 -100 -1 0 -47 45 -102 100 l-100 100 103
0 102 0 0 -100z m-485 -140 l220 -220 -223 0 -222 0 0 220 c0 121 1 220 3 220
1 0 101 -99 222 -220z m365 115 l95 -95 -98 0 -97 0 0 95 c0 52 1 95 3 95 1 0
45 -43 97 -95z m120 -225 l0 -110 -110 0 -110 0 0 110 0 110 110 0 110 0 0
-110z m0 -355 c0 -124 -1 -225 -3 -225 -1 0 -156 101 -342 225 l-340 225 343
0 342 0 0 -225z m-215 -114 c94 -62 174 -117 180 -122 5 -5 -137 -9 -333 -9
l-342 0 0 230 0 229 163 -107 c89 -59 239 -158 332 -221z"/>
<path d="M4100 850 l0 -850 255 0 255 0 0 600 0 600 110 0 110 0 0 -600 0
-600 250 0 250 0 0 600 0 600 110 0 110 0 0 -600 0 -600 255 0 255 0 0 850 0
850 -980 0 -980 0 0 -850z m955 599 c495 -122 902 -223 904 -225 2 -2 -410 -4
-917 -4 l-922 0 0 231 c0 215 1 230 18 225 9 -3 422 -105 917 -227z m985 6 c0
-124 -3 -225 -7 -225 -5 1 -411 101 -903 224 l-895 224 903 1 902 1 0 -225z
m-1450 -827 c0 -314 -2 -569 -4 -567 -2 2 -19 40 -36 84 -17 44 -40 98 -50
120 -13 29 -321 802 -367 923 -4 9 45 12 226 12 l231 0 0 -572z m720 5 c0
-324 -4 -562 -9 -553 -18 31 -441 1099 -441 1113 0 4 101 7 225 7 l225 0 0
-567z m729 -5 l0 -573 -25 55 c-18 39 -357 886 -431 1078 -4 9 45 12 226 12
l231 0 -1 -572z m-1741 82 c88 -223 176 -441 196 -485 19 -44 46 -110 60 -147
l25 -68 -229 0 -230 0 1 573 c0 314 4 563 8 552 5 -11 81 -202 169 -425z
m1506 -141 c90 -229 169 -425 175 -435 6 -11 20 -43 31 -71 l20 -53 -230 0
-230 0 0 573 1 572 34 -85 c19 -47 108 -272 199 -501z m-771 116 c97 -242 196
-489 221 -549 25 -59 46 -112 46 -117 0 -5 -101 -9 -225 -9 l-225 0 0 562 c0
309 2 559 4 557 2 -2 83 -202 179 -444z"/>
<path d="M6278 850 l2 -850 610 0 610 0 0 250 0 250 -360 0 -360 0 0 110 0
110 360 0 360 0 0 490 0 490 -612 0 -613 0 3 -850z m482 268 c0 -327 -4 -557
-9 -548 -11 18 -431 1067 -438 1093 -5 16 10 17 221 17 l226 0 0 -562z m730
336 c0 -177 -3 -224 -12 -218 -17 10 -652 435 -657 440 -2 2 147 4 332 4 l337
0 0 -226z m-356 -16 l328 -218 -341 0 -341 0 0 226 c0 177 3 224 13 218 6 -5
160 -106 341 -226z m-626 -328 c105 -261 202 -501 216 -533 14 -32 26 -62 26
-67 0 -6 -86 -10 -225 -10 l-225 0 0 558 c0 325 4 551 9 542 5 -8 95 -229 199
-490z m492 -20 l0 -110 -110 0 -110 0 0 110 0 110 110 0 110 0 0 -110z m490
-117 l0 -227 -71 69 c-39 39 -138 141 -221 228 l-150 157 221 0 221 0 0 -227z
m-245 -13 l220 -220 -223 0 -222 0 0 220 c0 121 1 220 3 220 1 0 101 -99 222
-220z m-245 -100 c0 -55 -1 -100 -3 -100 -1 0 -47 45 -102 100 l-100 100 103
0 102 0 0 -100z m-115 -20 l100 -100 -103 0 -102 0 0 100 c0 55 1 100 3 100 1
0 47 -45 102 -100z m605 -585 c0 -124 -3 -225 -7 -225 -7 0 -447 173 -918 361
l-220 88 573 1 572 0 0 -225z m-605 -15 c308 -122 562 -223 564 -226 2 -2
-255 -4 -572 -4 l-577 0 0 231 c0 181 3 230 13 226 6 -3 264 -105 572 -227z"/>
</g>
</svg>
