<?xml version="1.0" standalone="no"?>
<!DOCTYPE svg PUBLIC "-//W3C//DTD SVG 20010904//EN"
 "http://www.w3.org/TR/2001/REC-SVG-20010904/DTD/svg10.dtd">
<svg version="1.0" xmlns="http://www.w3.org/2000/svg"
 width="674.000000pt" height="482.000000pt" viewBox="0 0 674.000000 482.000000"
 preserveAspectRatio="xMidYMid meet">
<g transform="translate(0.000000,482.000000) scale(0.100000,-0.100000)"
fill="#bc2727" stroke="none">
<path d="M0 2410 l0 -2410 1930 0 1930 0 0 2410 0 2410 -490 0 -490 0 0 -1920
0 -1920 -230 0 -230 0 0 1920 0 1920 -490 0 -490 0 0 -1920 0 -1920 -230 0
-230 0 0 1920 0 1920 -490 0 -490 0 0 -2410z m959 533 l-1 -1858 -22 85 c-13
47 -222 875 -465 1840 -243 965 -444 1763 -447 1773 -5 16 22 17 465 17 l471
0 -1 -1857z m1440 0 l-1 -1858 -22 85 c-13 47 -222 875 -465 1840 -243 965
-444 1763 -447 1773 -5 16 22 17 465 17 l471 0 -1 -1857z m1440 -20 l-1 -1878
-464 1855 c-255 1020 -466 1865 -469 1878 l-5 22 470 0 470 0 -1 -1877z
m-2885 -1915 l6 -28 -470 0 -470 0 1 1863 0 1862 463 -1835 c255 -1009 466
-1847 470 -1862z m1440 0 l6 -28 -470 0 -470 0 1 1863 0 1862 463 -1835 c255
-1009 466 -1847 470 -1862z m1436 -20 c0 -5 -209 -8 -465 -8 l-465 0 1 1858 1
1857 464 -1850 c255 -1017 464 -1853 464 -1857z m-1910 -502 l1855 -464 -1877
-1 -1878 -1 0 470 0 470 23 -5 c12 -3 857 -214 1877 -469z m1920 9 c0 -256 -3
-465 -7 -465 -5 0 -840 209 -1858 464 l-1850 464 1858 1 1857 1 0 -465z"/>
<path d="M4320 2410 l0 -2410 490 0 490 0 0 960 0 960 720 0 720 0 0 490 0
490 -720 0 -720 0 0 470 0 470 720 0 720 0 0 490 0 490 -1210 0 -1210 0 0
-2410z m959 43 l-1 -2348 -463 2315 c-255 1273 -466 2330 -470 2348 l-6 32
471 0 470 0 -1 -2347z m1441 1882 c0 -256 -1 -465 -3 -465 -2 0 -315 209 -697
465 l-694 465 697 0 697 0 0 -465z m-696 -27 l669 -448 -696 0 -697 0 0 466 0
466 28 -18 c15 -9 328 -219 696 -466z m-755 -4275 c1 -10 -98 -13 -464 -13
l-465 0 1 2323 1 2322 463 -2310 c255 -1270 464 -2316 464 -2322z m1451 2382
c0 -256 -1 -465 -3 -465 -2 0 -315 209 -697 465 l-694 465 697 0 697 0 0 -465z
m-696 -27 l669 -448 -696 0 -697 0 0 466 0 466 28 -18 c15 -9 328 -219 696
-466z"/>
</g>
</svg>
