<?xml version="1.0" standalone="no"?>
<!DOCTYPE svg PUBLIC "-//W3C//DTD SVG 20010904//EN"
 "http://www.w3.org/TR/2001/REC-SVG-20010904/DTD/svg10.dtd">
<svg version="1.0" xmlns="http://www.w3.org/2000/svg"
 width="1490.000000pt" height="995.000000pt" viewBox="0 0 1490.000000"
 preserveAspectRatio="xMidYMid meet">
<metadata>
Created by potrace 1.15, written by Peter Selinger 2001-2017
</metadata>
<g transform="translate(0.000000,995.000000) scale(0.100000,-0.100000)"
fill="#000000" stroke="none">
<path d="M0 7540 l0 -2410 1930 0 1930 0 0 2410 0 2410 -490 0 -490 0 0 -1920
0 -1920 -230 0 -230 0 0 1920 0 1920 -490 0 -490 0 0 -1920 0 -1920 -230 0
-230 0 0 1920 0 1920 -490 0 -490 0 0 -2410z m959 533 l-1 -1858 -22 85 c-13
47 -222 875 -465 1840 -243 965 -444 1763 -447 1773 -5 16 22 17 465 17 l471
0 -1 -1857z m1440 0 l-1 -1858 -22 85 c-13 47 -222 875 -465 1840 -243 965
-444 1763 -447 1773 -5 16 22 17 465 17 l471 0 -1 -1857z m1440 -20 l-1 -1878
-464 1855 c-255 1020 -466 1865 -469 1878 l-5 22 470 0 470 0 -1 -1877z
m-2885 -1915 l6 -28 -470 0 -470 0 1 1863 0 1862 463 -1835 c255 -1009 466
-1847 470 -1862z m1440 0 l6 -28 -470 0 -470 0 1 1863 0 1862 463 -1835 c255
-1009 466 -1847 470 -1862z m1436 -20 c0 -5 -209 -8 -465 -8 l-465 0 1 1858 1
1857 464 -1850 c255 -1017 464 -1853 464 -1857z m-1910 -502 l1855 -464 -1877
-1 -1878 -1 0 470 0 470 23 -5 c12 -3 857 -214 1877 -469z m1920 9 c0 -256 -3
-465 -7 -465 -5 0 -840 209 -1858 464 l-1850 464 1858 1 1857 1 0 -465z"/>
<path d="M4320 9460 l0 -490 490 0 490 0 0 490 0 490 -490 0 -490 0 0 -490z
m960 10 c0 -253 -1 -460 -3 -460 -1 0 -209 207 -462 460 l-460 460 463 0 462
0 0 -460z m-475 -20 l460 -460 -463 0 -462 0 0 460 c0 253 1 460 3 460 1 0
209 -207 462 -460z"/>
<path d="M4320 6820 l0 -1690 490 0 490 0 0 1690 0 1690 -490 0 -490 0 0
-1690z m960 28 c0 -903 -2 -1639 -4 -1637 -2 2 -212 735 -466 1629 -254 894
-465 1631 -467 1638 -4 9 93 12 466 12 l471 0 0 -1642z m-475 -63 c250 -880
458 -1608 461 -1617 5 -17 -21 -18 -460 -18 l-466 0 1 1628 c0 895 2 1623 5
1617 2 -5 208 -730 459 -1610z"/>
<path d="M5760 6820 l0 -1690 490 0 490 0 0 1200 0 1200 480 0 480 0 0 490 0
490 -970 0 -970 0 0 -1690z m1920 1210 c0 -253 -3 -460 -7 -460 -5 0 -422 207
-928 459 l-920 459 928 1 927 1 0 -460z m-955 -14 l930 -464 -937 -1 -938 -1
0 465 c0 256 3 465 8 465 4 0 426 -209 937 -464z m-5 -1658 c0 -644 -2 -1169
-4 -1167 -3 2 -212 526 -466 1164 -254 638 -464 1163 -467 1168 -2 4 208 7
466 7 l471 0 0 -1172z m-106 -970 l94 -238 -464 0 -464 0 1 1163 0 1162 370
-925 c203 -509 411 -1032 463 -1162z"/>
<path d="M8160 6820 l0 -1690 1210 0 1210 0 0 490 0 490 -720 0 -720 0 2 228
3 227 718 3 717 2 0 970 0 970 -1210 0 -1210 0 0 -1690z m959 508 c0 -640 -4
-1154 -9 -1143 -4 11 -205 508 -445 1105 -240 597 -447 1111 -460 1143 l-24
57 470 0 469 0 -1 -1162z m1441 697 c0 -256 -1 -465 -3 -465 -2 0 -315 209
-697 465 l-694 465 697 0 697 0 0 -465z m-696 -27 l669 -448 -696 0 -697 0 0
466 0 466 28 -18 c15 -9 328 -219 696 -466z m-1192 -778 c242 -602 442 -1098
445 -1102 2 -5 -208 -8 -466 -8 l-471 0 0 1163 1 1162 25 -60 c14 -33 223
-553 466 -1155z m928 80 l0 -230 -230 0 -230 0 0 230 0 230 230 0 230 0 0
-230z m960 -230 c0 -253 -1 -460 -3 -460 -1 0 -209 207 -462 460 l-460 460
463 0 462 0 0 -460z m-475 -20 l460 -460 -463 0 -462 0 0 460 c0 253 1 460 3
460 1 0 209 -207 462 -460z m-485 -220 c0 -121 -1 -220 -3 -220 -1 0 -101 99
-222 220 l-220 220 223 0 222 0 0 -220z m-235 -20 l220 -220 -223 0 -222 0 0
220 c0 121 1 220 3 220 1 0 101 -99 222 -220z m-10 -1190 c638 -254 1162 -463
1164 -466 2 -2 -523 -4 -1167 -4 l-1172 0 0 471 c0 258 3 468 8 466 4 -3 529
-213 1167 -467z m1205 6 l0 -464 -237 94 c-131 52 -654 260 -1163 463 l-925
370 1163 0 1162 1 0 -464z"/>
<path d="M0 2410 l0 -2410 490 0 490 0 0 960 0 960 720 0 720 0 0 490 0 490
-720 0 -720 0 0 470 0 470 720 0 720 0 0 490 0 490 -1210 0 -1210 0 0 -2410z
m959 43 l-1 -2348 -463 2315 c-255 1273 -466 2330 -470 2348 l-6 32 471 0 470
0 -1 -2347z m1441 1882 c0 -256 -1 -465 -3 -465 -2 0 -315 209 -697 465 l-694
465 697 0 697 0 0 -465z m-696 -27 l669 -448 -696 0 -697 0 0 466 0 466 28
-18 c15 -9 328 -219 696 -466z m-755 -4275 c1 -10 -98 -13 -464 -13 l-465 0 1
2323 1 2322 463 -2310 c255 -1270 464 -2316 464 -2322z m1451 2382 c0 -256 -1
-465 -3 -465 -2 0 -315 209 -697 465 l-694 465 697 0 697 0 0 -465z m-696 -27
l669 -448 -696 0 -697 0 0 466 0 466 28 -18 c15 -9 328 -219 696 -466z"/>
<path d="M2880 1690 l0 -1690 490 0 490 0 0 1200 0 1200 480 0 480 0 0 490 0
490 -970 0 -970 0 0 -1690z m1920 1210 c0 -253 -3 -460 -7 -460 -5 0 -422 207
-928 459 l-920 459 928 1 927 1 0 -460z m-955 -14 l930 -464 -937 -1 -938 -1
0 465 c0 256 3 465 8 465 4 0 426 -209 937 -464z m-5 -1658 c0 -644 -2 -1169
-4 -1167 -3 2 -212 526 -466 1164 -254 638 -464 1163 -467 1168 -2 4 208 7
466 7 l471 0 0 -1172z m-106 -970 l94 -238 -464 0 -464 0 1 1163 0 1162 370
-925 c203 -509 411 -1032 463 -1162z"/>
<path d="M5280 2890 l0 -490 720 0 720 0 -2 -227 -3 -228 -717 -3 -718 -2 0
-970 0 -970 1213 0 1212 0 -3 1690 -2 1690 -1210 0 -1210 0 0 -490z m2400 -1
c0 -258 -3 -468 -7 -466 -5 3 -530 213 -1168 467 -638 254 -1162 463 -1164
466 -2 2 523 4 1167 4 l1172 0 0 -471z m-980 -98 l925 -370 -1162 0 -1163 -1
0 464 0 464 238 -94 c130 -52 653 -260 1162 -463z m980 -1553 l-1 -1163 -25
60 c-14 33 -223 553 -466 1155 -242 602 -442 1098 -445 1103 -2 4 208 7 466 7
l471 0 0 -1162z m-485 -18 c240 -597 447 -1111 460 -1142 l24 -58 -470 0 -469
0 1 1163 c0 639 4 1153 9 1142 4 -11 205 -508 445 -1105z m-955 240 c0 -253
-1 -460 -3 -460 -1 0 -209 207 -462 460 l-460 460 463 0 462 0 0 -460z m480
240 c0 -121 -1 -220 -3 -220 -1 0 -101 99 -222 220 l-220 220 223 0 222 0 0
-220z m-955 -260 l460 -460 -463 0 -462 0 0 460 c0 253 1 460 3 460 1 0 209
-207 462 -460z m720 240 l220 -220 -223 0 -222 0 0 220 c0 121 1 220 3 220 1
0 101 -99 222 -220z m235 -470 l0 -230 -230 0 -230 0 0 230 0 230 230 0 230 0
0 -230z m0 -716 l0 -466 -27 18 c-16 9 -329 219 -697 466 l-669 448 696 0 697
0 0 -466z m-720 -9 l694 -465 -697 0 -697 0 0 465 c0 256 1 465 3 465 2 0 315
-209 697 -465z"/>
<path d="M8160 1690 l0 -1690 490 0 490 0 0 1200 0 1200 230 0 230 0 0 -1200
0 -1200 490 0 490 0 0 1200 0 1200 230 0 230 0 0 -1200 0 -1200 490 0 490 0 0
1690 0 1690 -1930 0 -1930 0 0 -1690z m1920 1196 l1855 -464 -1877 -1 -1878
-1 0 470 0 470 23 -5 c12 -3 857 -214 1877 -469z m1920 9 c0 -256 -3 -465 -7
-465 -5 0 -840 209 -1858 464 l-1850 464 1858 1 1857 1 0 -465z m-2880 -1667
c0 -644 -2 -1169 -4 -1167 -3 2 -212 526 -466 1164 -254 638 -464 1163 -467
1168 -2 4 208 7 466 7 l471 0 0 -1172z m1440 0 c0 -644 -2 -1169 -4 -1167 -3
2 -212 526 -466 1164 -254 638 -464 1163 -467 1168 -2 4 208 7 466 7 l471 0 0
-1172z m1440 0 c0 -644 -2 -1169 -4 -1167 -3 2 -212 526 -466 1164 -254 638
-464 1163 -467 1168 -2 4 208 7 466 7 l471 0 0 -1172z m-2986 -970 l94 -238
-464 0 -464 0 1 1163 0 1162 370 -925 c203 -509 411 -1032 463 -1162z m1440 0
l94 -238 -464 0 -464 0 1 1163 0 1162 370 -925 c203 -509 411 -1032 463 -1162z
m1440 0 l94 -238 -464 0 -464 0 1 1163 0 1162 370 -925 c203 -509 411 -1032
463 -1162z"/>
<path d="M12478 1690 l2 -1690 1210 0 1210 0 0 490 0 490 -720 0 -720 0 2 228
3 227 718 3 717 2 0 970 0 970 -1212 0 -1213 0 3 -1690z m961 508 c0 -640 -4
-1154 -9 -1143 -4 11 -205 508 -445 1105 -240 597 -447 1111 -460 1143 l-24
57 470 0 469 0 -1 -1162z m1441 697 c0 -256 -1 -465 -3 -465 -2 0 -315 209
-697 465 l-694 465 697 0 697 0 0 -465z m-696 -27 l669 -448 -696 0 -697 0 0
466 0 466 28 -18 c15 -9 328 -219 696 -466z m-1192 -778 c242 -602 442 -1098
445 -1103 2 -4 -208 -7 -466 -7 l-471 0 0 1163 1 1162 25 -60 c14 -33 223
-553 466 -1155z m928 80 l0 -230 -230 0 -230 0 0 230 0 230 230 0 230 0 0
-230z m960 -230 c0 -253 -1 -460 -3 -460 -1 0 -209 207 -462 460 l-460 460
463 0 462 0 0 -460z m-475 -20 l460 -460 -463 0 -462 0 0 460 c0 253 1 460 3
460 1 0 209 -207 462 -460z m-485 -220 c0 -121 -1 -220 -3 -220 -1 0 -101 99
-222 220 l-220 220 223 0 222 0 0 -220z m-235 -20 l220 -220 -223 0 -222 0 0
220 c0 121 1 220 3 220 1 0 101 -99 222 -220z m-10 -1190 c638 -254 1162 -463
1164 -466 2 -2 -523 -4 -1167 -4 l-1172 0 0 471 c0 258 3 468 8 466 4 -3 529
-213 1167 -467z m1205 6 l0 -464 -237 94 c-131 52 -654 260 -1163 463 l-925
370 1163 0 1162 1 0 -464z"/>
</g>
</svg>
